<svg width="38" height="32" viewBox="0 0 38 32" fill="none" xmlns="http://www.w3.org/2000/svg">
<g id="Add Image Icon">
<path id="Icon" d="M9.81214 27.9124L24.1549 16.5448L30.9044 22.2286M9.81214 27.9124H26.6859C29.4817 27.9124 31.7481 26.0038 31.7481 23.6495V16.5448M9.81214 27.9124C7.0164 27.9124 4.75 26.0038 4.75 23.6495V9.44001C4.75 7.0857 7.0164 5.17715 9.81214 5.17715H20.7801M30.0607 12.0381L30.0607 8.01906M30.0607 8.01906L30.0607 4M30.0607 8.01906L25.2881 8.01906M30.0607 8.01906L34.8333 8.01906M14.8743 11.5714C14.8743 12.7486 13.7411 13.7029 12.3432 13.7029C10.9453 13.7029 9.81214 12.7486 9.81214 11.5714C9.81214 10.3943 10.9453 9.44001 12.3432 9.44001C13.7411 9.44001 14.8743 10.3943 14.8743 11.5714Z" stroke="white" stroke-width="2.5" stroke-linecap="round" stroke-linejoin="round"/>
</g>
</svg>
