<svg width="50" height="50" viewBox="0 0 50 50" fill="none" xmlns="http://www.w3.org/2000/svg">
  <path d="M41.6667 41.6666H8.33333C7.00725 41.6666 5.73548 41.1398 4.7978 40.2022C3.86012 39.2645 3.33333 37.9927 3.33333 36.6666V16.6666C3.33333 15.3406 3.86012 14.0687 4.7978 13.131C5.73548 12.1934 7.00725 11.6666 8.33333 11.6666H16.6667L20.8333 5.83331H29.1667L33.3333 11.6666H41.6667C42.9927 11.6666 44.2645 12.1934 45.2022 13.131C46.1399 14.0687 46.6667 15.3406 46.6667 16.6666V36.6666C46.6667 37.9927 46.1399 39.2645 45.2022 40.2022C44.2645 41.1398 42.9927 41.6666 41.6667 41.6666Z" stroke="black" stroke-width="3" stroke-linecap="round" stroke-linejoin="round"/>
  <path d="M25 33.3334C29.6024 33.3334 33.3333 29.6024 33.3333 25C33.3333 20.3976 29.6024 16.6667 25 16.6667C20.3976 16.6667 16.6667 20.3976 16.6667 25C16.6667 29.6024 20.3976 33.3334 25 33.3334Z" stroke="black" stroke-width="3" stroke-linecap="round" stroke-linejoin="round"/>
</svg>
