<svg width="50" height="50" viewBox="0 0 50 50" fill="none" xmlns="http://www.w3.org/2000/svg">
<g id="CameraIcon">
<path id="Icon" d="M15 12.75V14.75C15.7113 14.75 16.3691 14.3722 16.7276 13.7577L15 12.75ZM18.5 6.75V4.75C17.7887 4.75 17.1309 5.12782 16.7724 5.74226L18.5 6.75ZM31.5 6.75L33.2276 5.74226C32.8691 5.12782 32.2113 4.75 31.5 4.75V6.75ZM35 12.75L33.2724 13.7577C33.6309 14.3722 34.2887 14.75 35 14.75V12.75ZM5 38.25H7V17.75H5H3V38.25H5ZM10 12.75V14.75H15V12.75V10.75H10V12.75ZM15 12.75L16.7276 13.7577L20.2276 7.75774L18.5 6.75L16.7724 5.74226L13.2724 11.7423L15 12.75ZM18.5 6.75V8.75H31.5V6.75V4.75H18.5V6.75ZM31.5 6.75L29.7724 7.75774L33.2724 13.7577L35 12.75L36.7276 11.7423L33.2276 5.74226L31.5 6.75ZM35 12.75V14.75H40V12.75V10.75H35V12.75ZM45 17.75H43V38.25H45H47V17.75H45ZM45 38.25H43C43 39.9069 41.6568 41.25 40 41.25V43.25V45.25C43.866 45.25 47 42.116 47 38.25H45ZM40 12.75V14.75C41.6568 14.75 43 16.0931 43 17.75H45H47C47 13.884 43.866 10.75 40 10.75V12.75ZM5 17.75H7C7 16.0931 8.34314 14.75 10 14.75V12.75V10.75C6.13401 10.75 3 13.884 3 17.75H5ZM10 43.25V41.25C8.34315 41.25 7 39.9069 7 38.25H5H3C3 42.116 6.13401 45.25 10 45.25V43.25ZM32.5 26.75H30.5C30.5 29.7876 28.0376 32.25 25 32.25V34.25V36.25C30.2467 36.25 34.5 31.9967 34.5 26.75H32.5ZM25 34.25V32.25C21.9624 32.25 19.5 29.7876 19.5 26.75H17.5H15.5C15.5 31.9967 19.7533 36.25 25 36.25V34.25ZM17.5 26.75H19.5C19.5 23.7124 21.9624 21.25 25 21.25V19.25V17.25C19.7533 17.25 15.5 21.5033 15.5 26.75H17.5ZM25 19.25V21.25C28.0376 21.25 30.5 23.7124 30.5 26.75H32.5H34.5C34.5 21.5033 30.2467 17.25 25 17.25V19.25ZM40 43.25V41.25H10V43.25V45.25H40V43.25Z" fill="#606060"/>
</g>
</svg>
