<svg width="42" height="42" viewBox="0 0 42 42" fill="none" xmlns="http://www.w3.org/2000/svg">
<g id="IconGroup">
<path id="Icon" d="M7.3744 5.98064L8.14286 9.44444C8.21415 9.66921 8.62271 10.2557 8.81537 10.3389L11.969 11.341C12.5818 11.6055 12.5818 12.6167 11.969 12.8812L8.72302 14.198C8.53036 14.2812 8.21415 14.553 8.14286 14.7778L7.37441 18.2416C7.14765 18.9565 6.28092 18.9565 6.05417 18.2416L5.28571 14.7778C5.21442 14.553 4.90045 14.2812 4.70779 14.198L1.4596 12.8812C0.846801 12.6167 0.846801 11.6055 1.4596 11.341L4.70779 10.3389C4.90045 10.2557 5.21442 9.66921 5.28571 9.44444L6.05417 5.98064C6.28092 5.26571 7.14765 5.26571 7.3744 5.98064Z" fill="black" stroke="black" stroke-width="0.3" stroke-linejoin="round"/>
<path id="Icon_2" d="M28.3648 2.60859L30.2859 13C30.4641 13.6743 30.9535 16.5601 31.4351 16.8096L39.851 19.627C41.383 20.4206 41.383 21.8148 39.851 22.6084L31.9087 25.5974C31.4271 25.8469 30.4641 28.3257 30.2859 29L28.3648 39.3914C27.7979 41.5362 25.6311 41.5362 25.0642 39.3914L23.143 29C22.9648 28.3257 22.1799 25.8469 21.6982 25.5974L13.5777 22.6086C12.0457 21.8149 12.0457 20.4208 13.5777 19.6272L21.6982 16.8096C22.1799 16.5601 22.9648 13.6743 23.143 13L25.0642 2.60859C25.6311 0.463804 27.7979 0.463802 28.3648 2.60859Z" fill="black" stroke="black" stroke-linejoin="round"/>
<path id="Icon_3" d="M15.1489 29.6248L15.8213 32.7037C15.8837 32.9035 16.2412 33.4249 16.4097 33.4988L19.1691 34.3896C19.7053 34.6247 19.7053 35.5235 19.1691 35.7587L16.3289 36.9291C16.1604 37.0031 15.8837 37.2447 15.8213 37.4445L15.1489 40.5234C14.9505 41.1589 14.1921 41.1589 13.9937 40.5234L13.3213 37.4445C13.2589 37.2447 12.9842 37.0031 12.8156 36.9291L9.97344 35.7587C9.43724 35.5235 9.43724 34.6247 9.97344 34.3896L12.8156 33.4988C12.9842 33.4249 13.2589 32.9035 13.3213 32.7037L13.9937 29.6248C14.1921 28.9893 14.9505 28.9893 15.1489 29.6248Z" fill="black" stroke="black" stroke-width="0.3" stroke-linejoin="round"/>
</g>
</svg>
