<svg width="45" height="45" viewBox="0 0 45 45" fill="none" xmlns="http://www.w3.org/2000/svg">
  <path d="M22.5 4.5C20.0145 4.5 18 6.51472 18 9V22.5C18 24.9853 20.0145 27 22.5 27C24.9853 27 27 24.9853 27 22.5V9C27 6.51472 24.9853 4.5 22.5 4.5Z" stroke="white" stroke-width="3" stroke-linecap="round" stroke-linejoin="round"/>
  <path d="M34.875 18V22.5C34.875 26.3179 33.3567 29.9789 30.6528 32.6828C27.9489 35.3867 24.2879 36.9049 20.4701 36.9049C16.6522 36.9049 12.9912 35.3867 10.2873 32.6828C7.58333 29.9789 6.06511 26.3179 6.06511 22.5V18" stroke="white" stroke-width="3" stroke-linecap="round" stroke-linejoin="round"/>
  <path d="M22.5 36.9V40.5" stroke="white" stroke-width="3" stroke-linecap="round" stroke-linejoin="round"/>
  <path d="M14.625 40.5H30.375" stroke="white" stroke-width="3" stroke-linecap="round" stroke-linejoin="round"/>
</svg>
