<svg width="45" height="45" viewBox="0 0 45 45" fill="none" xmlns="http://www.w3.org/2000/svg">
<g id="MicrophoneIcon">
<path id="Icon" d="M8.24609 20.9571C8.74452 24.3818 10.4593 27.5126 13.0767 29.7767C15.6942 32.0407 19.0393 33.2867 22.5 33.2867M22.5 33.2867C25.9608 33.2867 29.3059 32.0407 31.9233 29.7767C34.5408 27.5126 36.2556 24.3818 36.754 20.9571M22.5 33.2867V40.5M22.5021 4.5C20.8653 4.5 19.2956 5.1502 18.1382 6.30757C16.9809 7.46494 16.3307 9.03466 16.3307 10.6714V18.9C16.3307 20.5368 16.9809 22.1065 18.1382 23.2639C19.2956 24.4212 20.8653 25.0714 22.5021 25.0714C24.1389 25.0714 25.7086 24.4212 26.866 23.2639C28.0233 22.1065 28.6735 20.5368 28.6735 18.9V10.6714C28.6735 9.03466 28.0233 7.46494 26.866 6.30757C25.7086 5.1502 24.1389 4.5 22.5021 4.5Z" stroke="#F4F4F4" stroke-width="4" stroke-linecap="round" stroke-linejoin="round"/>
</g>
</svg>
