<svg width="45" height="45" viewBox="0 0 45 45" fill="none" xmlns="http://www.w3.org/2000/svg">
<g id="microphone-off-01">
<path id="Icon" d="M17.2046 6.30757C18.362 5.1502 19.9317 4.5 21.5685 4.5C23.2053 4.5 24.775 5.1502 25.9324 6.30757C27.0897 7.46494 27.7399 9.03466 27.7399 10.6714V16.875M7.3125 20.9571C7.81093 24.3818 9.52572 27.5126 12.1432 29.7767C14.7606 32.0407 18.1057 33.2867 21.5664 33.2867M21.5664 33.2867C25.0272 33.2867 28.3723 32.0407 30.9897 29.7767C33.6072 27.5126 35.322 24.3818 35.8204 20.9571M21.5664 33.2867V40.5M15.3971 14.625V18.9C15.3971 20.5368 16.0473 22.1065 17.2046 23.2639C18.362 24.4212 19.9317 25.0714 21.5685 25.0714C22.6157 25.0714 23.6355 24.8053 24.5373 24.3104M6.1875 4.5L38.8125 37.125" stroke="#E88383" stroke-width="4" stroke-linecap="round" stroke-linejoin="round"/>
</g>
</svg>
